<svg width="512" height="512" viewBox="0 0 512 512" fill="none" xmlns="http://www.w3.org/2000/svg">
<g clip-path="url(#clip0_5_19)">
<rect width="512" height="512" fill="#F8F9FA"/>
<path d="M-637 451.78V58.7173H-563.743V388.56H-439.343V58.7173H-366.086V388.56H-241.687V58.7173L-168.927 58.7173L-168.429 451.78H-637Z" fill="#0C090A"/>
<path d="M-168.927 395.487C-134.832 408.314 -17.4916 409.56 18.446 409.56C103.59 409.56 143.398 355.576 148.927 284.11H-72.2273V220.89H149.203C144.965 153.089 105.065 99.9477 18.446 99.9477C-17.4916 99.9477 -134.762 101.194 -168.857 114.021L-168.927 58.7173C-134.832 47.7225 -21.1775 55.9686 18.446 55.9686C156.667 55.9686 295.165 126.06 295.165 255.249C295.165 391.767 156.667 454.529 18.446 454.529C-21.1775 454.529 -134.832 462.775 -168.927 451.78V395.487Z" fill="#0C090A"/>
<path d="M571.885 58.7173V121.937H368.699V387.736H459.096C497.429 387.736 516.596 372.251 516.596 341.283C516.596 306.833 492.453 289.607 444.168 289.607H414.312V226.387H446.656C542.121 226.387 589.853 263.678 589.853 338.259C589.853 413.94 547.834 451.78 463.795 451.78L18.446 454.529L283.997 254.754L18.446 55.9686L571.885 58.7173Z" fill="#0C090A"/>
<path d="M368.699 397.227C402.794 410.054 520.135 411.3 556.072 411.3C641.216 411.3 681.024 357.316 686.553 285.85H465.399V222.63H686.829C682.591 154.829 642.691 101.687 556.072 101.687C520.135 101.687 402.864 102.933 368.769 115.761L368.699 60.4568C402.794 49.4621 516.449 57.7082 556.072 57.7082C694.293 57.7082 832.791 127.8 832.791 256.988C832.791 393.507 694.293 456.268 556.072 456.268C516.449 456.268 402.794 464.514 368.699 453.52V397.227Z" fill="#0C090A"/>
<ellipse cx="273.807" cy="257.75" rx="73.8613" ry="67.7062" fill="#FFBE98"/>
</g>
<defs>
<clipPath id="clip0_5_19">
<rect width="512" height="512" fill="white"/>
</clipPath>
</defs>
</svg>
